<?xml version="1.0" standalone="no"?>
<!DOCTYPE svg PUBLIC "-//W3C//DTD SVG 20010904//EN"
 "http://www.w3.org/TR/2001/REC-SVG-20010904/DTD/svg10.dtd">
<svg version="1.0" xmlns="http://www.w3.org/2000/svg"
 width="3375.000000pt" height="3375.000000pt" viewBox="0 0 3375.000000 3375.000000"
 preserveAspectRatio="xMidYMid meet">

<g transform="translate(0.000000,3375.000000) scale(0.100000,-0.100000)"
fill="#000000" stroke="none">
<path d="M10410 19075 l0 -155 1955 0 1955 0 0 155 0 155 -1955 0 -1955 0 0
-155z"/>
<path d="M13015 18504 c-96 -25 -235 -36 -400 -32 l-165 4 0 -38 c0 -36 1 -38
33 -38 54 0 135 -29 172 -61 19 -17 44 -55 57 -87 l23 -57 0 -1180 c0 -1106
-1 -1183 -18 -1226 -30 -79 -88 -115 -203 -126 l-64 -6 0 -36 0 -36 455 0 455
0 0 36 0 36 -65 6 c-81 8 -145 35 -172 73 -50 72 -48 7 -51 1434 -1 734 -3
1338 -5 1341 -1 3 -24 0 -52 -7z"/>
<path d="M14060 18497 c-63 -17 -111 -20 -307 -21 l-233 -1 0 -36 0 -36 57 -7
c117 -14 179 -62 210 -164 17 -53 18 -139 18 -1227 0 -1097 -1 -1173 -18
-1216 -30 -79 -88 -115 -203 -126 l-64 -6 0 -36 0 -36 455 0 455 0 0 36 0 36
-65 6 c-71 7 -140 33 -167 64 -49 55 -48 11 -48 1444 0 736 -4 1340 -8 1342
-4 2 -41 -5 -82 -16z"/>
<path d="M7080 18194 c0 -26 4 -34 18 -34 9 0 44 -13 77 -29 63 -29 103 -68
134 -130 10 -20 107 -297 214 -616 107 -319 289 -859 404 -1200 l209 -620 31
-3 c23 -2 33 2 37 15 9 31 332 1082 462 1500 68 221 124 405 125 410 1 13 36
-89 350 -1020 164 -489 301 -893 304 -898 4 -5 19 -9 34 -9 27 0 28 1 135 348
428 1375 621 1986 646 2040 36 78 107 149 189 188 54 26 61 32 61 59 l0 31
-355 1 -355 2 0 -33 0 -32 86 -12 c154 -20 222 -79 232 -198 8 -100 -10 -172
-201 -769 -52 -165 -146 -459 -209 -654 l-113 -354 -41 129 c-78 239 -355
1098 -411 1269 -97 299 -114 359 -119 420 -11 110 18 138 161 157 l85 12 0 32
0 32 -420 -1 -420 -1 0 -32 c0 -28 4 -33 29 -39 48 -10 108 -61 141 -117 16
-29 57 -134 90 -234 l61 -181 -221 -704 c-121 -387 -224 -713 -228 -724 -8
-17 -10 -16 -20 15 -11 37 -324 994 -474 1450 -67 204 -91 293 -95 347 -6 70
-5 73 24 102 22 21 46 33 91 41 61 12 62 13 62 45 l0 32 -405 0 -405 0 0 -33z"/>
<path d="M11210 17541 c-197 -42 -394 -160 -450 -272 -43 -84 -31 -210 26
-279 92 -109 286 -82 355 50 20 39 16 138 -8 192 -22 48 -84 103 -131 115
l-23 6 28 29 c42 45 112 76 209 93 103 18 160 19 239 4 78 -14 125 -39 168
-90 59 -69 69 -110 74 -321 3 -103 2 -203 -1 -223 -10 -53 -67 -110 -150 -149
-39 -18 -156 -62 -261 -96 -388 -128 -520 -212 -598 -378 -27 -59 -31 -79 -35
-179 -4 -96 -1 -123 17 -180 63 -196 226 -304 461 -306 120 -1 201 17 298 64
72 35 182 133 233 208 l34 49 12 -70 c16 -97 48 -156 107 -195 65 -44 114 -56
221 -56 68 0 104 6 145 22 56 22 171 98 176 116 2 6 -5 21 -15 34 l-19 25 -52
-34 c-57 -36 -132 -50 -169 -31 -11 7 -29 24 -39 38 -16 25 -18 82 -23 698 -7
730 -9 758 -66 875 -58 119 -190 214 -341 245 -102 21 -313 19 -422 -4z m463
-1595 c-49 -72 -146 -162 -210 -194 -102 -52 -217 -60 -315 -23 -43 16 -107
80 -136 135 -25 48 -27 60 -27 176 0 167 19 216 119 315 77 76 132 109 331
199 143 65 229 117 248 150 10 17 13 -51 15 -348 l2 -370 -27 -40z"/>
<path d="M15355 17546 c-336 -77 -566 -352 -641 -767 -23 -130 -24 -404 -1
-520 72 -365 278 -611 587 -699 104 -30 316 -38 420 -16 159 33 320 139 424
277 52 69 110 184 103 203 -3 8 -19 18 -36 24 -31 11 -32 10 -55 -36 -58 -115
-159 -219 -263 -271 -94 -47 -276 -67 -375 -41 -77 21 -161 73 -234 146 -58
57 -81 90 -123 175 -76 154 -92 228 -98 446 -3 100 -2 202 1 227 l7 46 585 0
584 0 0 53 c0 232 -71 445 -193 573 -76 81 -142 123 -252 160 -70 24 -98 28
-230 30 -102 3 -169 -1 -210 -10z m308 -89 c124 -73 202 -263 214 -519 l6
-128 -412 0 -413 0 6 28 c3 15 10 63 17 107 13 95 51 219 89 295 52 103 163
207 254 236 67 22 184 13 239 -19z"/>
<path d="M17600 17539 c-97 -25 -204 -78 -263 -130 -59 -51 -126 -145 -167
-230 l-30 -64 0 219 c0 189 -2 217 -15 212 -8 -3 -54 -13 -102 -23 -67 -14
-137 -18 -296 -18 l-207 0 0 -37 c0 -37 1 -38 36 -38 117 0 199 -61 228 -171
15 -58 17 -128 14 -759 l-3 -695 -25 -45 c-32 -57 -91 -88 -183 -97 l-67 -6 0
-40 0 -40 73 7 c94 8 631 8 725 0 l72 -7 0 42 c0 40 -1 41 -33 41 -58 0 -134
28 -160 60 -52 61 -52 65 -52 650 1 531 1 547 23 624 54 193 158 333 300 404
74 36 78 37 191 37 100 0 122 -3 162 -23 56 -27 101 -87 126 -167 17 -56 18
-108 18 -735 0 -371 -4 -692 -8 -713 -17 -78 -104 -137 -204 -137 -31 0 -33
-2 -33 -37 l0 -38 435 0 435 0 0 36 0 36 -66 6 c-93 9 -148 38 -182 95 l-27
47 -6 660 c-7 713 -8 730 -63 851 -51 110 -163 197 -297 229 -91 21 -256 19
-349 -6z"/>
<path d="M19531 17549 c-496 -97 -784 -627 -689 -1264 51 -347 270 -622 573
-721 105 -35 293 -44 403 -20 200 42 362 173 466 375 60 118 62 125 31 139
-34 16 -55 15 -55 -2 0 -27 -98 -162 -158 -218 -34 -31 -90 -70 -124 -87 -279
-136 -551 -44 -683 231 -79 164 -105 312 -105 603 0 377 70 617 224 771 80 79
147 116 245 134 123 22 284 -26 364 -108 l38 -39 -48 -24 c-141 -73 -149 -274
-14 -346 61 -32 157 -32 213 -1 92 52 122 189 66 309 -57 125 -207 223 -401
263 -82 17 -271 20 -346 5z"/>
<path d="M15884 15086 c-9 -24 4 -48 23 -44 12 2 18 12 18 28 0 29 -32 41 -41
16z"/>
<path d="M17832 14898 c3 -178 5 -203 19 -206 14 -3 17 11 21 97 3 87 7 103
27 124 27 30 71 40 108 26 46 -17 52 -36 53 -146 0 -96 1 -103 20 -103 19 0
20 7 20 99 0 117 -8 144 -52 171 -45 27 -97 26 -142 -5 l-36 -24 0 84 c0 79
-2 85 -20 85 -20 0 -20 -5 -18 -202z"/>
<path d="M18910 14895 c0 -198 1 -205 20 -205 19 0 20 7 20 205 0 198 -1 205
-20 205 -19 0 -20 -7 -20 -205z"/>
<path d="M19784 15086 c-9 -24 4 -48 23 -44 12 2 18 12 18 28 0 29 -32 41 -41
16z"/>
<path d="M13730 14880 l0 -191 135 3 c169 4 185 21 25 28 l-115 5 0 70 0 70
98 3 c77 2 97 6 97 17 0 12 -19 15 -100 15 l-101 0 3 68 3 67 113 3 c90 2 112
5 112 17 0 12 -23 15 -135 15 l-135 0 0 -190z"/>
<path d="M16830 15055 c0 -11 16 -15 68 -17 l67 -3 3 -172 c2 -165 3 -173 22
-173 19 0 20 7 20 175 l0 175 65 0 c51 0 65 3 65 15 0 13 -24 15 -155 15 -129
0 -155 -2 -155 -15z"/>
<path d="M15660 15010 c0 -25 -4 -30 -25 -30 -16 0 -25 -6 -25 -15 0 -9 9 -15
24 -15 24 0 24 -1 28 -111 3 -102 5 -112 27 -130 36 -29 111 -24 111 8 0 12
-7 14 -29 10 -17 -4 -36 0 -50 9 -19 14 -21 24 -21 115 l0 99 45 0 c33 0 45 4
45 15 0 11 -12 15 -45 15 -43 0 -45 1 -45 30 0 23 -4 30 -20 30 -16 0 -20 -7
-20 -30z"/>
<path d="M14090 14835 c0 -135 1 -145 19 -145 17 0 19 10 23 99 4 109 11 125
66 148 43 18 94 3 111 -33 6 -14 11 -67 11 -119 0 -88 1 -95 20 -95 19 0 20 7
20 99 0 117 -8 144 -52 171 -45 27 -97 26 -142 -5 l-36 -24 0 24 c0 18 -5 25
-20 25 -19 0 -20 -7 -20 -145z"/>
<path d="M14513 14964 c-69 -34 -96 -141 -54 -210 22 -35 75 -64 120 -64 38 0
91 21 109 42 21 26 -11 30 -55 7 -58 -30 -122 -11 -144 44 -29 70 -1 135 68
158 28 9 40 7 78 -11 48 -23 75 -19 53 7 -34 41 -120 54 -175 27z"/>
<path d="M14770 14835 c0 -135 1 -145 19 -145 17 0 19 10 23 100 3 86 7 102
27 123 12 14 36 27 52 31 18 3 29 12 29 22 0 23 -56 11 -87 -18 l-23 -21 0 26
c0 20 -5 27 -20 27 -19 0 -20 -7 -20 -145z"/>
<path d="M14943 14973 c3 -4 32 -70 66 -146 59 -134 61 -139 45 -168 -20 -39
-54 -55 -84 -39 -32 17 -54 -5 -26 -26 28 -20 79 -17 108 5 26 21 186 366 175
377 -16 17 -37 -13 -82 -120 -28 -64 -52 -116 -55 -116 -3 0 -28 53 -55 118
-42 96 -55 118 -74 120 -13 2 -21 0 -18 -5z"/>
<path d="M15280 14780 c0 -195 0 -200 20 -200 18 0 20 6 20 80 l0 79 36 -24
c44 -30 95 -32 143 -7 54 27 75 64 75 127 0 63 -21 100 -75 128 -43 23 -110
17 -150 -12 l-29 -22 0 26 c0 18 -5 25 -19 25 -19 0 -20 -9 -21 -200z m195
156 c35 -15 65 -59 65 -96 0 -44 -29 -90 -65 -106 -44 -18 -106 -5 -130 28
-40 59 -22 147 37 173 42 18 51 18 93 1z"/>
<path d="M15880 14835 c0 -138 1 -145 20 -145 19 0 20 7 20 145 0 138 -1 145
-20 145 -19 0 -20 -7 -20 -145z"/>
<path d="M16068 14959 c-46 -24 -68 -64 -68 -124 0 -62 22 -101 72 -126 106
-54 226 24 215 140 -11 106 -122 162 -219 110z m142 -38 c52 -38 51 -135 -3
-175 -81 -60 -193 20 -166 118 22 78 102 105 169 57z"/>
<path d="M16370 14835 c0 -135 1 -145 19 -145 17 0 19 10 23 100 3 86 7 102
27 123 43 46 127 41 150 -9 6 -14 11 -67 11 -119 0 -88 1 -95 20 -95 19 0 20
7 20 103 0 84 -4 108 -20 135 -35 57 -112 69 -174 27 l-36 -24 0 24 c0 18 -5
25 -20 25 -19 0 -20 -7 -20 -145z"/>
<path d="M17243 14966 c-69 -31 -96 -141 -53 -211 39 -63 147 -84 213 -40 21
13 25 21 16 31 -9 11 -15 11 -35 -3 -31 -20 -94 -22 -127 -4 -14 8 -33 28 -41
45 l-15 31 126 3 125 3 -6 30 c-15 77 -58 119 -127 125 -26 3 -57 -2 -76 -10z
m140 -58 c16 -16 26 -35 24 -41 -2 -8 -38 -13 -100 -15 -84 -2 -97 0 -97 13 0
48 60 89 115 79 17 -3 43 -19 58 -36z"/>
<path d="M17571 14963 c-18 -9 -42 -31 -52 -47 -24 -40 -25 -118 -1 -158 20
-35 79 -68 122 -68 37 0 90 21 108 42 21 26 -11 30 -55 7 -112 -57 -210 84
-123 176 32 34 76 39 126 14 47 -22 74 -18 52 8 -34 42 -120 54 -177 26z"/>
<path d="M18200 14835 c0 -136 1 -145 19 -145 17 0 19 9 23 99 3 88 6 102 26
124 28 30 72 40 109 26 46 -17 52 -36 53 -146 0 -96 1 -103 20 -103 19 0 20 7
20 99 0 117 -8 144 -52 171 -45 27 -97 26 -142 -5 l-36 -24 0 24 c0 18 -5 25
-20 25 -19 0 -20 -7 -20 -145z"/>
<path d="M18623 14964 c-46 -23 -73 -71 -73 -129 0 -61 28 -106 79 -130 105
-47 219 32 208 144 -11 102 -120 161 -214 115z m135 -40 c65 -42 51 -159 -23
-190 -84 -35 -168 42 -144 132 20 74 100 101 167 58z"/>
<path d="M19108 14959 c-46 -24 -68 -64 -68 -124 0 -62 22 -101 72 -126 106
-54 226 24 215 140 -11 106 -122 162 -219 110z m142 -38 c52 -38 51 -135 -3
-175 -81 -60 -193 20 -166 118 22 78 102 105 169 57z"/>
<path d="M19451 14963 c-45 -23 -71 -68 -71 -123 0 -112 111 -174 213 -120
l37 20 0 -34 c0 -22 -9 -45 -24 -63 -20 -24 -31 -27 -77 -27 -31 0 -68 8 -87
17 -30 16 -33 16 -39 1 -19 -50 155 -71 216 -27 45 34 51 57 51 221 0 141 -1
153 -17 150 -11 -2 -18 -12 -17 -26 1 -27 -4 -28 -33 -1 -31 30 -106 36 -152
12z m152 -51 c22 -21 27 -34 27 -72 0 -38 -5 -51 -27 -72 -50 -45 -113 -45
-158 0 -31 31 -35 104 -7 140 36 47 116 49 165 4z"/>
<path d="M19780 14835 c0 -138 1 -145 20 -145 19 0 20 7 20 145 0 138 -1 145
-20 145 -19 0 -20 -7 -20 -145z"/>
<path d="M19983 14965 c-69 -30 -96 -140 -53 -211 39 -61 151 -82 216 -39 21
13 23 19 13 31 -8 10 -15 11 -24 4 -21 -18 -75 -29 -106 -23 -37 7 -79 46 -79
73 0 19 6 20 121 20 l121 0 -7 33 c-23 106 -108 153 -202 112z m100 -28 c36
-16 51 -32 61 -64 7 -23 6 -23 -93 -23 -85 0 -101 2 -101 16 0 28 21 55 53 69
40 18 41 18 80 2z"/>
<path d="M20282 14965 c-35 -15 -51 -45 -44 -82 6 -32 36 -51 104 -64 61 -12
82 -27 76 -56 -6 -31 -52 -46 -106 -33 -70 16 -77 16 -77 0 0 -22 72 -42 128
-37 57 5 97 37 97 78 0 36 -21 56 -73 70 -91 25 -105 31 -111 44 -19 52 75 80
146 44 11 -6 18 -4 22 7 9 23 9 22 -31 33 -51 14 -91 13 -131 -4z"/>
</g>
</svg>
